<?xml version="1.0" standalone="no"?><!DOCTYPE svg PUBLIC "-//W3C//DTD SVG 1.1//EN" "http://www.w3.org/Graphics/SVG/1.1/DTD/svg11.dtd"><svg t="1700135169851" class="icon" viewBox="0 0 1024 1024" version="1.1" xmlns="http://www.w3.org/2000/svg" p-id="6430" xmlns:xlink="http://www.w3.org/1999/xlink" width="200" height="200"><path d="M481.536 103.253333c16.810667 0 30.464 13.653333 30.464 30.464v30.464c0 16.810667-13.653333 30.464-30.464 30.464H207.274667a30.464 30.464 0 0 0-30.293334 26.88l-0.256 3.584v609.536c0 15.445333 11.605333 28.501333 26.965334 30.293334l3.584 0.170666H816.64a30.464 30.464 0 0 0 30.293333-26.965333l0.256-3.413333V560.298667c0-16.810667 13.653333-30.464 30.464-30.464h30.464c16.810667 0 30.464 13.653333 30.464 30.464v335.189333c0 33.706667-27.306667 61.013333-60.928 61.013333H146.261333A60.928 60.928 0 0 1 85.333333 895.573333V164.181333c0-33.706667 27.306667-60.928 60.928-60.928h335.274667z m288.768-8.192l155.904 167.082667a45.568 45.568 0 0 1 12.117333 27.733333 45.738667 45.738667 0 0 1-45.397333 51.029334H755.797333a182.869333 182.869333 0 0 0-182.698666 176.042666l-0.170667 6.826667v182.869333c0 16.810667-13.653333 30.464-30.464 30.464H512a30.464 30.464 0 0 1-30.464-30.464v-213.333333A243.797333 243.797333 0 0 1 725.333333 249.514667h64l-85.845333-92.16a30.464 30.464 0 0 1 1.450667-43.008l22.272-20.821334a30.464 30.464 0 0 1 43.093333 1.536z" p-id="6431" fill="#ffffff"></path></svg>