<?xml version="1.0" encoding="UTF-8"?>
<svg width="24px" height="24px" viewBox="0 0 24 24" version="1.1" xmlns="http://www.w3.org/2000/svg" xmlns:xlink="http://www.w3.org/1999/xlink">
    <title>右箭头备份</title>
    <g id="1108" stroke="none" stroke-width="1" fill="none" fill-rule="evenodd">
        <g id="世界杯主题" transform="translate(-1452.000000, -1681.000000)" fill-rule="nonzero">
            <g id="右箭头备份" transform="translate(1464.000000, 1693.000000) rotate(-180.000000) translate(-1464.000000, -1693.000000) translate(1452.000000, 1681.000000)">
                <rect id="矩形" fill="#000000" opacity="0" x="0" y="0" width="24" height="24"></rect>
                <path d="M20.7448359,11.4696797 L14.7266719,5.45153906 C14.4337969,5.15864063 13.9589062,5.15864063 13.6660312,5.45153906 C13.3731328,5.7444375 13.3731328,6.21930469 13.6660312,6.51220313 L18.430875,11.2770469 L3.70371094,11.2770469 C3.30442969,11.2770469 2.98075781,11.6007422 2.98075781,12 C2.98075781,12.3992813 3.30445312,12.7229531 3.70371094,12.7229531 L18.4308984,12.7229531 L13.6660312,17.4878203 C13.3731328,17.7806953 13.3731328,18.2555859 13.6660312,18.5484844 C13.8124687,18.6949219 14.0044219,18.7681406 14.1963516,18.7681406 C14.3882812,18.7681406 14.5802344,18.6949219 14.7266719,18.5484844 L20.7448359,12.5303203 C20.885488,12.3896719 20.9645058,12.1989095 20.9645058,12 C20.9645058,11.8010905 20.885488,11.6103281 20.7448359,11.4696797 L20.7448359,11.4696797 Z" id="路径" fill="#828C9B"></path>
            </g>
        </g>
    </g>
</svg>